<?xml version="1.0" encoding="utf-8"?>
<!-- Generator: Adobe Illustrator 20.0.0, SVG Export Plug-In . SVG Version: 6.00 Build 0)  -->
<svg version="1.1" id="Layer_1" xmlns="http://www.w3.org/2000/svg" xmlns:xlink="http://www.w3.org/1999/xlink" x="0px" y="0px"
	 viewBox="0 0 481.3 244.2" style="enable-background:new 0 0 481.3 244.2;" xml:space="preserve">
<style type="text/css">
	.st0{fill:#FFFFFF;}
	.st1{fill:#80BACE;}
	.st2{fill:#045B85;}
</style>
<rect class="st0" width="481.3" height="244.2"/>
<g>
	<polygon class="st1" points="24,20.4 24,144.9 24,223.8 154,223.8 154,144.9 154,20.4 	"/>
</g>
<path class="st0" d="M128.7,45.7H88.5H49.4c-19.9,0-33,15.6-33,30c0,15.9,9.9,28.8,25.8,28.8c12.7,0,23.1-10.3,23.1-23.1
	c0-1.7-0.3-3.4-0.7-5h49c-0.4,1.6-0.7,3.2-0.7,5c0,12.7,10.3,23.1,23.1,23.1c15.9,0,25.8-12.9,25.8-28.8
	C161.7,62.3,148.6,45.7,128.7,45.7z"/>
<polygon class="st0" points="42.1,66.5 42.1,130.3 42.1,210 135.9,210 135.9,130.3 135.9,66.5 "/>
<polygon class="st0" points="89,38.9 37,38.9 37,40.8 44.8,46.6 89,46.6 132.2,46.6 140,40.8 140,38.9 "/>
<rect x="33.5" y="30.7" class="st0" width="110" height="9"/>
<g>
	<path class="st2" d="M212.6,59.4c0-8.6-0.2-10-4.9-10.4l-2-0.2c-0.5-0.3-0.3-1.8,0.2-2c4.1,0.2,6.8,0.2,10.2,0.2
		c3.2,0,6-0.1,10.1-0.2c0.5,0.2,0.6,1.7,0.2,2l-2,0.2c-4.8,0.4-4.9,1.8-4.9,10.4v28.9c0,8.6,0.2,9.7,4.9,10.3l2,0.2
		c0.5,0.3,0.3,1.8-0.2,2c-4.1-0.2-6.8-0.2-10.1-0.2c-3.4,0-6.2,0.1-10.2,0.2c-0.5-0.2-0.6-1.5-0.2-2l2-0.2c4.8-0.6,4.9-1.7,4.9-10.3
		V59.4z"/>
	<path class="st2" d="M240,59.2c0-8.5-0.2-9.8-5.3-10.2l-2-0.2c-0.5-0.3-0.3-1.8,0.2-2c4.5,0.2,7.3,0.2,10.5,0.2
		c3.2,0,5.9-0.1,10-0.2c0.5,0.2,0.6,1.7,0.2,2l-1.9,0.2c-4.8,0.4-4.9,1.7-4.9,10.2v28.2c0,5.1,0.2,7.2,1.7,8.8
		c0.9,0.9,2.4,1.9,8.8,1.9c6.9,0,8.6-0.3,9.9-1.1c1.6-1,3.7-3.9,5.3-8c0.5-0.4,2-0.1,2,0.5c0,0.9-2.3,9.2-3.4,11.3
		c-4.1-0.2-11.8-0.2-20.2-0.2h-7.5c-3.4,0-6,0.1-10.5,0.2c-0.5-0.2-0.6-1.5-0.2-2l2.4-0.2c4.7-0.5,4.9-1.6,4.9-10.1V59.2z"/>
	<path class="st1" d="M289,74.2c0.4-0.9,0.4-1.5-0.2-1.5c-0.6,0-2.7,1-6.7,4.3c-0.7-0.1-1.2-0.7-1.1-1.4c4.5-5.1,10.7-8.1,13.4-8.1
		c0.6,0,1,0.5,1.3,0.8c0.5,0.5,0.5,1.2-0.5,3.6l-9.6,23c-0.3,0.8-0.4,1.8,0.2,1.8c1.4,0,5.7-2.8,8.4-6c0.8,0.1,1.2,0.6,1.2,1.4
		c-1.2,2.4-9.6,9.6-15.2,9.6c-0.4,0-0.9-0.2-1.3-0.7c-0.5-0.6-0.7-1.3-0.3-2.2L289,74.2z M298.6,53.9c0,2.5-1.8,5-4.2,5
		c-2.1,0-2.8-1.6-2.8-3c0-1.8,1.1-5.1,4.3-5.1C297.7,50.8,298.6,52.1,298.6,53.9z"/>
	<path class="st2" d="M330,81.8c-0.6-1.8-0.9-2-3.3-2h-12.2c-2,0-2.5,0.2-3.1,1.9l-2.8,8.5c-1.2,3.6-1.8,5.8-1.8,6.7
		c0,1,0.4,1.5,2.4,1.6l2.7,0.2c0.6,0.4,0.6,1.7-0.2,2c-2.1-0.2-4.6-0.2-8.4-0.2c-2.7,0-5.6,0.2-7.8,0.2c-0.5-0.3-0.6-1.6-0.2-2
		l2.7-0.2c1.9-0.2,3.7-1.1,4.9-4c1.5-3.7,3.7-9,7.1-18.1l8.3-21.9c1.1-2.9,1.6-4.5,1.4-5.8c1.9-0.6,3.3-2,4.2-3.1
		c0.5,0,1.1,0.2,1.2,0.7c1.1,3.6,2.4,7.3,3.6,10.9L339.6,90c2.4,7,3.4,8.2,6.9,8.6l2.2,0.2c0.6,0.4,0.4,1.7,0,2
		c-3.3-0.2-6.2-0.2-9.8-0.2c-3.9,0-7,0.2-9.3,0.2c-0.6-0.3-0.7-1.6-0.2-2l2.4-0.2c1.7-0.2,2.8-0.6,2.8-1.5c0-0.9-0.4-2.4-1.1-4.3
		L330,81.8z M313.9,74.6c-0.6,1.9-0.6,1.9,1.7,1.9h10c2.4,0,2.5-0.3,1.8-2.5L323,60.8c-0.6-1.9-1.4-4.1-1.9-5.1H321
		c-0.2,0.4-1.1,2.4-1.9,4.8L313.9,74.6z"/>
	<path class="st2" d="M357.9,57.6c0-5.7-0.4-7.4-3.8-7.9l-1.8-0.2c-0.6-0.4-0.7-1.7,0.1-2c6.9-0.4,13.5-0.6,20.3-0.6
		c6.8,0,12.6,0.5,17.8,2.4c10.9,4,16.5,13.2,16.5,23.9c0,10.3-4.9,19.1-14.2,24.2c-5.3,2.8-11.9,3.9-18.2,3.9
		c-5.2,0-10.4-0.6-13.2-0.6c-3.4,0-6.3,0.1-10.1,0.2c-0.5-0.2-0.6-1.5-0.2-2l1.9-0.2c4.7-0.6,4.9-1.6,4.9-10.1V57.6z M364.5,86.5
		c0,4.3,0.2,6.9,1.6,8.8c1.8,2.5,4.9,3.3,10,3.3c15.7,0,22.8-10.3,22.8-25.4c0-8.9-4.3-24-25.5-24c-4.8,0-7.4,0.6-8,1.1
		c-0.6,0.5-0.8,2.5-0.8,6.2V86.5z"/>
	<path class="st2" d="M428.9,101.9c-6.8,0-11.1-2.1-12.6-3c-1-1.8-2-7.5-2.2-11.3c0.4-0.6,1.6-0.7,1.9-0.2
		c1.2,4.1,4.5,12.1,13.9,12.1c6.8,0,10.1-4.5,10.1-9.3c0-3.6-0.7-7.5-6.6-11.3l-7.7-5c-4.1-2.7-8.8-7.3-8.8-13.9
		c0-7.7,6-13.9,16.5-13.9c2.5,0,5.4,0.5,7.5,1.1c1.1,0.3,2.2,0.5,2.8,0.5c0.7,1.9,1.5,6.5,1.5,9.9c-0.3,0.5-1.6,0.7-2,0.2
		c-1.1-3.9-3.2-9.2-11-9.2c-7.9,0-9.6,5.3-9.6,9c0,4.7,3.9,8.1,6.9,10l6.5,4.1c5.1,3.2,10.1,7.9,10.1,15.6
		C446.1,95.8,439.4,101.9,428.9,101.9z"/>
</g>
<g>
	<g>
		<path class="st2" d="M206.8,133.7l-0.7,0.1l0,0l0,0c-0.1,0.1-0.1,0.3-0.1,0.5c0,0.2,0.1,0.3,0.2,0.3l0,0l0,0
			c1.3-0.1,2.2-0.1,3.3-0.1c1.1,0,2,0,3.3,0.1l0,0l0,0c0.1-0.1,0.2-0.3,0.2-0.4c0-0.2,0-0.3-0.1-0.4l-0.7-0.1
			c-1.5-0.2-1.6-0.5-1.6-3.3V121c0-2.8,0.1-3.2,1.5-3.3l0.7-0.1l0,0c0.1-0.1,0.1-0.2,0.1-0.4c0-0.1-0.1-0.3-0.2-0.4l0,0l0,0
			c-1.2,0-2.2,0.1-3.3,0.1c-1.1,0-2,0-3.3-0.1l0,0l0,0c-0.1,0.1-0.2,0.3-0.2,0.4c0,0.2,0,0.3,0.1,0.4l0,0l0.7,0.1
			c1.5,0.1,1.5,0.5,1.5,3.3v9.4C208.3,133.2,208.3,133.5,206.8,133.7z"/>
		<path class="st2" d="M214.3,134.5L214.3,134.5c0.8-0.1,1.6-0.1,2.5-0.1c0.9,0,1.7,0,2.4,0.1l0,0l0,0c0.1-0.1,0.2-0.2,0.2-0.4
			c0-0.1,0-0.3-0.1-0.4l-0.5-0.1c-0.9-0.1-0.9-0.3-0.9-2.2v-4c0-0.8,0.1-1.1,0.4-1.5c0.3-0.4,1.1-0.9,2.2-0.9c2,0,2.4,1.4,2.4,2.5
			v3.9c0,1.9,0,2.1-0.9,2.2l-0.5,0.1l0,0c-0.1,0.1-0.2,0.3-0.1,0.4c0,0.1,0.1,0.3,0.2,0.4l0,0l0,0c0.7-0.1,1.5-0.1,2.5-0.1
			c0.9,0,1.7,0,2.5,0.1l0,0l0,0c0.1-0.1,0.2-0.2,0.2-0.4c0-0.1,0-0.3-0.1-0.4l-0.6-0.1c-0.9-0.1-0.9-0.3-0.9-2.2v-4.5
			c0-2.1-1.2-3.3-3.2-3.3c-1.3,0-2.6,0.6-3.7,1.3c-0.1,0-0.2-0.1-0.2-0.2c0-0.2,0-0.6,0.1-1.2l0,0l0,0c-0.1-0.2-0.2-0.2-0.4-0.2h0
			l0,0c-0.5,0.4-2,1.1-2.6,1.3c-0.1,0-0.1,0.1-0.1,0.2c0,0.1,0,0.3,0.1,0.4l0.2,0.2c0.7,0.5,0.7,0.6,0.7,1.6v4.6
			c0,1.9,0,2.1-0.9,2.2l-0.6,0.1l0,0l0,0c-0.1,0.1-0.2,0.3-0.1,0.4C214.1,134.3,214.1,134.5,214.3,134.5L214.3,134.5z"/>
		<path class="st2" d="M227.7,134c0.7,0.5,1.6,0.8,2.9,0.8c1.9,0,3.9-1,3.9-3.1c0-1.9-1.3-2.8-2.7-3.6l-0.1-0.1
			c-0.9-0.5-1.9-1.1-1.9-2.1c0-0.9,0.7-1.5,1.6-1.5c1,0,1.8,0.7,2.3,1.9l0,0c0.1,0.1,0.2,0.1,0.3,0.1c0.2,0,0.4-0.1,0.4-0.2l0,0v0
			c0-0.7-0.2-1.5-0.4-2.2l0,0c-0.3-0.2-1.3-0.5-2.4-0.5c-2.2,0-3.7,1.2-3.7,3.1c0,1.6,1.3,2.5,2.7,3.3c1.1,0.6,2,1.2,2,2.4
			c0,1.2-0.9,1.6-1.7,1.6c-1.6,0-2.4-1.5-2.7-2.7l0,0c-0.1-0.1-0.2-0.1-0.3-0.1c-0.2,0-0.3,0.1-0.4,0.2l0,0l0,0
			C227.4,132.2,227.5,133.5,227.7,134L227.7,134z"/>
		<path class="st2" d="M235.8,125.2L235.8,125.2l0.8,0c0.5,0,0.5,0,0.5,0.7v6.1c0,1.4,0.3,2.9,2.8,2.9c1.6,0,2.6-0.9,2.8-1.2l0,0
			c0-0.1,0-0.3-0.1-0.4c-0.1-0.1-0.2-0.1-0.3-0.1c-0.1,0-0.1,0-0.3,0.1c-0.1,0.1-0.3,0.2-0.4,0.2c-0.2,0.1-0.5,0.1-0.7,0.1
			c-1.7,0-1.9-1.4-1.9-2.9v-4.9c0-0.5,0-0.6,0.4-0.6h3l0,0c0.1-0.1,0.2-0.3,0.2-0.6c0-0.3-0.1-0.5-0.2-0.7l0,0h-3
			c-0.4,0-0.4,0-0.4-0.4v-1.2l0,0c-0.1-0.2-0.3-0.2-0.4-0.2c-0.1,0-0.2,0-0.2,0l0,0l0,0c-0.3,0.5-0.8,1.2-1.1,1.5
			c-0.2,0.2-0.9,0.6-1.7,0.8l0,0l0,0c-0.1,0.1-0.1,0.2-0.1,0.4C235.7,125,235.7,125.1,235.8,125.2z"/>
		<path class="st2" d="M245.9,120.7c0.7,0,1.5-0.4,1.5-1.4c0-0.8-0.6-1.4-1.4-1.4c-0.9,0-1.5,0.6-1.5,1.5
			C244.5,120.1,245.1,120.7,245.9,120.7z"/>
		<path class="st2" d="M243.6,134.5L243.6,134.5c0.8-0.1,1.6-0.1,2.5-0.1c0.9,0,1.7,0,2.5,0.1l0,0l0,0c0.1-0.1,0.2-0.2,0.2-0.4
			c0-0.1,0-0.3-0.1-0.4l-0.6-0.1c-0.9-0.1-0.9-0.3-0.9-2.2v-4.8c0-1.3,0.1-2.7,0.1-3.3l0,0l0,0c0-0.1-0.2-0.2-0.3-0.2h0l0,0
			c-0.6,0.4-2.1,1.1-2.7,1.3c-0.1,0-0.1,0.1-0.1,0.2c0,0.1,0,0.3,0.1,0.4l0.2,0.2c0.7,0.5,0.7,0.6,0.7,1.6v4.6c0,1.9,0,2.1-0.9,2.2
			l-0.6,0.1l0,0l0,0c-0.1,0.1-0.2,0.3-0.1,0.4C243.4,134.3,243.5,134.5,243.6,134.5L243.6,134.5z"/>
		<path class="st2" d="M249.9,125.2h0.8c0.5,0,0.5,0,0.5,0.7v6.1c0,1.4,0.3,2.9,2.8,2.9c1.6,0,2.6-0.9,2.8-1.2l0,0
			c0-0.1,0-0.3-0.1-0.4c-0.1-0.1-0.2-0.1-0.3-0.1c-0.1,0-0.1,0-0.3,0.1c-0.1,0.1-0.3,0.2-0.4,0.2c-0.2,0.1-0.5,0.1-0.7,0.1
			c-1.7,0-1.9-1.4-1.9-2.9v-4.9c0-0.5,0-0.6,0.4-0.6h3l0,0c0.1-0.1,0.2-0.3,0.2-0.6c0-0.3-0.1-0.5-0.2-0.7l0,0h-3
			c-0.4,0-0.4,0-0.4-0.4v-1.2l0,0c-0.1-0.2-0.3-0.2-0.4-0.2c-0.1,0-0.2,0-0.2,0l0,0l0,0c-0.3,0.5-0.8,1.2-1.1,1.5
			c-0.2,0.2-0.9,0.6-1.7,0.8l0,0l0,0c-0.1,0.1-0.1,0.2-0.1,0.4C249.8,125,249.8,125.1,249.9,125.2L249.9,125.2z"/>
		<path class="st2" d="M258.1,124.9c0.8,0.3,0.8,0.5,0.8,2.2v4.4c0,2.3,1,3.4,3.3,3.4c1.5,0,2.7-0.8,3.6-1.3l0.1-0.1
			c0.1,0,0.2,0,0.2,0.3v1.1l0,0c0.1,0.1,0.2,0.2,0.4,0.2h0l0,0c0.8-0.4,2.1-0.7,3.1-0.9c0.1,0,0.3-0.1,0.4-0.1l0,0
			c0.1,0,0.2-0.2,0.2-0.3c0-0.2,0-0.4-0.1-0.5l0,0l0,0c-0.4,0.1-0.7,0.1-1,0.1c-0.6,0-0.8-0.7-0.8-2.8v-4.4c0-1,0-1.8,0.1-2.3l0,0
			l0,0c0-0.2-0.2-0.2-0.3-0.2l0,0l0,0c-0.6,0.3-2,0.4-3.1,0.5l0,0c-0.1,0.1-0.2,0.2-0.2,0.3c0,0.2,0.1,0.3,0.2,0.4l0.4,0.1
			c0.7,0.3,0.9,0.4,0.9,2v4.3c0,0.8-0.2,1.2-0.5,1.5c-0.5,0.5-1.4,0.8-2.1,0.8c-2,0-2.4-1.2-2.4-3v-4.4c0-1.3,0-1.9,0.1-2.3l0,0l0,0
			c0-0.2-0.2-0.2-0.3-0.2l0,0l0,0c-0.3,0.1-1.3,0.4-2.8,0.5l0,0c-0.1,0-0.2,0.2-0.2,0.3c0,0.2,0,0.3,0.1,0.4L258.1,124.9z"/>
		<path class="st2" d="M274.5,125.2h3l0,0c0.1-0.1,0.2-0.3,0.2-0.6c0-0.3-0.1-0.5-0.2-0.7l0,0h-3c-0.4,0-0.4,0-0.4-0.4v-1.2l0,0
			c-0.1-0.2-0.3-0.2-0.4-0.2c-0.1,0-0.2,0-0.2,0l0,0l0,0c-0.3,0.5-0.8,1.2-1.1,1.5c-0.2,0.2-0.9,0.6-1.7,0.8l0,0l0,0
			c-0.1,0.1-0.1,0.2-0.1,0.4c0,0.1,0.1,0.2,0.2,0.3l0,0h0.8c0.5,0,0.5,0,0.5,0.7v6.1c0,1.4,0.3,2.9,2.8,2.9c1.6,0,2.6-0.9,2.8-1.2
			l0,0c0-0.1,0-0.3-0.1-0.4c-0.1-0.1-0.2-0.1-0.3-0.1c-0.1,0-0.1,0-0.3,0.1c-0.1,0.1-0.3,0.2-0.4,0.2c-0.2,0.1-0.5,0.1-0.7,0.1
			c-1.7,0-1.9-1.4-1.9-2.9v-4.9C274.1,125.2,274.1,125.2,274.5,125.2z"/>
		<path class="st2" d="M287.6,132.3L287.6,132.3L287.6,132.3c0-0.3-0.3-0.5-0.6-0.4l0,0l0,0c-0.9,1.1-1.7,1.3-2.4,1.3
			c-3,0-4.3-2.4-4.3-4.9c0-0.6,0-0.6,0.6-0.6h4.9c1.2,0,1.5,0,1.6-0.2c0.1-0.1,0.1-0.3,0.1-0.7c0-1.6-1.4-3.2-3.8-3.2
			c-3.1,0-5.4,2.6-5.4,6c0,0.9,0.2,2.3,1.1,3.5c0.9,1.1,2.3,1.8,3.9,1.8C284.7,134.8,286.7,134.2,287.6,132.3z M283.4,124.5
			c1.5,0,2,0.9,2,1.6c0,0.3-0.1,0.4-0.1,0.4c-0.2,0.2-1,0.3-2.7,0.3h-1.9c-0.1,0-0.1,0-0.1-0.1C280.6,125.8,281.9,124.5,283.4,124.5
			z"/>
		<path class="st2" d="M295.2,133.7l-0.6,0.1l0,0c-0.1,0.1-0.2,0.3-0.1,0.4c0,0.1,0.1,0.3,0.2,0.4l0,0l0,0c0.8-0.1,1.6-0.1,2.5-0.1
			c0.9,0,1.7,0,2.9,0.1l0,0l0,0c0.1-0.1,0.2-0.2,0.2-0.4c0-0.1,0-0.3-0.1-0.4l0,0l-1-0.1c-0.9-0.1-0.9-0.3-0.9-2.2v-5.6
			c0-0.7,0-0.7,0.4-0.7h2.8l0,0c0.2-0.1,0.3-0.3,0.4-0.5c0.1-0.3,0-0.5-0.1-0.7l0,0h-3c-0.4,0-0.4,0-0.4-0.7v-0.8
			c0-1.1,0.1-3.2,0.6-4.4c0.4-0.9,1-1.4,1.8-1.4c0.9,0,1.6,0.6,2.1,1.1c0.2,0.2,0.4,0.3,0.7,0.3c0.6,0,1.1-0.5,1.1-1
			c0-0.9-1.1-1.7-2.7-1.7c-3,0-4.4,2.4-4.8,3.4c-0.6,1.3-0.8,2.8-0.8,4.7c0,0.2-0.1,0.3-0.4,0.5l-1.1,0.6l0,0l0,0
			c-0.1,0.1-0.1,0.2-0.1,0.3c0,0.1,0.1,0.2,0.2,0.3l0,0h0.9c0.5,0,0.5,0,0.5,0.7v5.6C296.2,133.3,296.2,133.5,295.2,133.7z"/>
		<path class="st2" d="M301.9,129.3c0,3.2,2.3,5.5,5.5,5.5c3.3,0,5.6-2.4,5.6-5.7c0-3.2-2.3-5.5-5.4-5.5
			C304.3,123.5,301.9,126,301.9,129.3z M307.3,124.5c2.6,0,3.3,3.2,3.3,5c0,2.1-0.8,4.4-3,4.4c-2.3,0-3.3-2.6-3.3-4.9
			C304.3,126.2,305.5,124.5,307.3,124.5z"/>
		<path class="st2" d="M314.6,134.5L314.6,134.5c0.7-0.1,1.5-0.1,2.4-0.1c0.9,0,1.7,0,2.9,0.1l0,0l0,0c0.1-0.1,0.2-0.2,0.2-0.4
			c0-0.1,0-0.3-0.1-0.4l0,0l-1-0.1c-0.9-0.1-1-0.3-1-2.2v-3.6c0-1,0.1-1.7,0.3-2c0.2-0.2,0.5-0.5,0.9-0.5c0.3,0,0.7,0.1,1.1,0.4l0,0
			c0.2,0.1,0.3,0.2,0.6,0.2c0.5,0,1.2-0.4,1.2-1.3c0-0.7-0.5-1.1-1.3-1.1c-1,0-2,0.8-2.9,1.6c0,0,0-0.1,0-0.1v-1.5
			c0-0.1-0.1-0.2-0.3-0.3l0,0l0,0c-0.6,0.4-2,1.1-2.7,1.3c-0.1,0-0.1,0.1-0.1,0.2c0,0.1,0,0.3,0.1,0.4l0.2,0.2
			c0.7,0.5,0.7,0.6,0.7,1.6v4.6c0,1.9,0,2.1-0.9,2.2l-0.5,0.1l0,0c-0.1,0.1-0.2,0.3-0.1,0.4C314.4,134.3,314.4,134.5,314.6,134.5
			L314.6,134.5z"/>
		<path class="st2" d="M329,117.6l0.7,0.1c1.6,0.1,1.7,0.5,1.7,3.3v9.5c0,2.8,0,3.1-1.5,3.2l-0.8,0.1l0,0l0,0
			c-0.1,0.1-0.1,0.3-0.1,0.5c0,0.2,0.1,0.3,0.2,0.3l0,0l0,0c1.5-0.1,2.3-0.1,3.4-0.1h2.4c2.9,0,5.3,0,6.6,0.1l0,0l0,0
			c0.4-0.7,1.1-3.4,1.1-3.7c0-0.2-0.3-0.3-0.5-0.3c-0.1,0-0.2,0-0.3,0.1l0,0c-0.5,1.2-1.2,2.2-1.7,2.6c-0.4,0.2-1,0.3-3.2,0.3
			c-2,0-2.5-0.3-2.8-0.6c-0.5-0.5-0.5-1.2-0.5-2.8v-9.2c0-2.8,0.1-3.1,1.5-3.3l0.7-0.1l0,0c0.1-0.1,0.1-0.2,0.1-0.4
			c0-0.1-0.1-0.3-0.2-0.4l0,0l0,0c-1.2,0-2.2,0.1-3.2,0.1c-1,0-1.9,0-3.4-0.1l0,0l0,0c-0.1,0.1-0.2,0.3-0.2,0.4
			C328.9,117.4,328.9,117.5,329,117.6L329,117.6z"/>
		<path class="st2" d="M345.6,120.7c0.7,0,1.5-0.4,1.5-1.4c0-0.8-0.6-1.4-1.4-1.4c-0.9,0-1.5,0.6-1.5,1.5
			C344.2,120.1,344.8,120.7,345.6,120.7z"/>
		<path class="st2" d="M343.3,134.5L343.3,134.5c0.8-0.1,1.6-0.1,2.5-0.1c0.9,0,1.7,0,2.5,0.1l0,0l0,0c0.1-0.1,0.2-0.2,0.2-0.4
			c0-0.1,0-0.3-0.1-0.4l-0.6-0.1c-0.9-0.1-0.9-0.3-0.9-2.2v-4.8c0-1.3,0.1-2.7,0.1-3.3l0,0l0,0c0-0.1-0.2-0.2-0.3-0.2h0l0,0
			c-0.6,0.4-2.1,1.1-2.7,1.3c-0.1,0-0.1,0.1-0.1,0.2c0,0.1,0,0.3,0.1,0.4l0.2,0.2c0.7,0.5,0.7,0.6,0.7,1.6v4.6c0,1.9,0,2.1-0.9,2.2
			l-0.6,0.1l0,0l0,0c-0.1,0.1-0.2,0.3-0.1,0.4C343.1,134.3,343.2,134.5,343.3,134.5L343.3,134.5z"/>
		<path class="st2" d="M355.9,123.5c-1,0-2,0.3-3.1,0.9c-0.1,0-0.2,0-0.2-0.5v-5c0-0.9,0-2,0.1-3.3l0,0l0,0
			c-0.1-0.1-0.2-0.2-0.3-0.2l0,0c-0.7,0.4-1.5,0.6-2.2,0.9c-0.3,0.1-0.5,0.2-0.7,0.2c-0.1,0.1-0.1,0.2-0.1,0.3c0,0.2,0,0.3,0.1,0.3
			l0.3,0.2c0.8,0.5,0.8,0.6,0.8,2.1v12.6c0,1.4,0,1.9-0.1,2.2l0,0l0,0c0.1,0.1,0.2,0.2,0.3,0.2c0.1,0,0.1,0,0.2-0.1
			c0.1-0.2,0.3-0.4,0.5-0.4c0.1,0,0.3,0.1,0.6,0.2c0.1,0,0.3,0.1,0.5,0.2c0.5,0.2,1.3,0.3,2.3,0.3c3.6,0,6.1-2.5,6.1-6
			C361,125.8,358.9,123.5,355.9,123.5z M355.3,133.9c-0.8,0-1.5-0.3-2-0.8c-0.4-0.5-0.6-1.3-0.6-2.3v-4.1c0-1,0.1-1.3,0.3-1.4
			c0.4-0.3,1.1-0.4,1.8-0.4c2.4,0,4,1.9,4,4.8C358.6,130.6,358.4,133.9,355.3,133.9z"/>
		<path class="st2" d="M367.3,134.8c1.4,0,3.3-0.7,4.2-2.5l0,0l0,0c0-0.3-0.3-0.5-0.6-0.4l0,0l0,0c-0.9,1.1-1.7,1.3-2.4,1.3
			c-3,0-4.3-2.4-4.3-4.9c0-0.6,0-0.6,0.6-0.6h4.9c1.2,0,1.5,0,1.6-0.2c0.1-0.1,0.1-0.3,0.1-0.7c0-1.6-1.4-3.2-3.8-3.2
			c-3.1,0-5.4,2.6-5.4,6c0,0.9,0.2,2.3,1.1,3.5C364.3,134.2,365.7,134.8,367.3,134.8z M367.4,124.5c1.5,0,2,0.9,2,1.6
			c0,0.3-0.1,0.4-0.1,0.4c-0.2,0.2-1,0.3-2.7,0.3h-1.9c-0.1,0-0.1,0-0.1-0.1C364.6,125.8,365.9,124.5,367.4,124.5z"/>
		<path class="st2" d="M379.1,123.5c-1,0-2,0.8-2.9,1.6c0,0,0-0.1,0-0.1v-1.5c0-0.1-0.1-0.2-0.3-0.3l0,0l0,0c-0.6,0.4-2,1.1-2.7,1.3
			c-0.1,0-0.1,0.1-0.1,0.2c0,0.1,0,0.3,0.1,0.4l0.2,0.2c0.7,0.5,0.7,0.6,0.7,1.6v4.6c0,1.9,0,2.1-0.9,2.2l-0.5,0.1l0,0
			c-0.1,0.1-0.2,0.3-0.1,0.4c0,0.1,0.1,0.3,0.2,0.4l0,0l0,0c0.7-0.1,1.5-0.1,2.4-0.1c0.9,0,1.7,0,2.9,0.1l0,0l0,0
			c0.1-0.1,0.2-0.2,0.2-0.4c0-0.1,0-0.3-0.1-0.4l0,0l-1-0.1c-0.9-0.1-1-0.3-1-2.2v-3.6c0-1,0.1-1.7,0.3-2c0.2-0.2,0.5-0.5,0.9-0.5
			c0.3,0,0.7,0.1,1.1,0.4l0,0c0.2,0.1,0.3,0.2,0.6,0.2c0.5,0,1.2-0.4,1.2-1.3C380.3,124,379.8,123.5,379.1,123.5z"/>
		<path class="st2" d="M386.1,128.9L383,130c-1.7,0.6-2.2,1.2-2.2,2.3c0,0.7,0.3,1.4,0.8,1.9c0.5,0.4,1.1,0.6,1.9,0.6
			c0.7,0,1.3-0.3,1.8-0.6l0.1-0.1c0.2-0.1,0.3-0.2,0.4-0.3c0.3-0.2,0.4-0.3,0.6-0.3c0.1,0,0.3,0.3,0.4,0.3c0.4,0.5,1.1,0.8,1.8,0.8
			c1.3,0,2.3-1,2.3-1.2c0-0.2-0.1-0.4-0.3-0.4c-0.1,0-0.2,0.1-0.3,0.1c0,0-0.1,0-0.1,0.1c-0.1,0.1-0.3,0.2-0.6,0.2
			c-0.3,0-0.5-0.1-0.7-0.3c-0.3-0.3-0.5-1-0.4-1.9l0.2-4.6c0-1.1-0.2-1.9-0.7-2.4c-0.5-0.5-1.2-0.8-2.1-0.8c-1.9,0-5,1.9-5,3.3
			c0,0.3,0.2,0.4,0.4,0.4c0.4,0,1.1-0.2,1.5-0.5c0.2-0.2,0.3-0.6,0.3-0.9c0.1-0.8,1-1.1,1.6-1.1c0.6,0,1,0.2,1.3,0.5
			c0.5,0.5,0.6,1.3,0.5,1.7l0,1.2C386.5,128.6,386.5,128.7,386.1,128.9z M386.5,130.1l-0.1,1.6l0,0.1c0,0.5,0,0.8-0.3,1.1
			c-0.3,0.3-1.1,0.6-1.6,0.6c-1.3,0-1.6-1.1-1.6-1.5c0-1,0.7-1.3,2.3-1.9c0.5-0.2,0.9-0.3,1.1-0.3
			C386.4,129.8,386.5,129.8,386.5,130.1z"/>
		<path class="st2" d="M395.5,133.7c-0.9-0.1-0.9-0.3-0.9-2.2v-12.5c0-1,0-2,0.1-2.8l0-0.5l0,0l0,0c-0.1-0.1-0.2-0.2-0.3-0.2l0,0
			c-0.9,0.5-2.2,0.9-2.8,1.1l0,0c-0.1,0.1-0.1,0.2-0.1,0.3c0,0.2,0,0.3,0.1,0.3l0.3,0.2c0.8,0.5,0.8,0.6,0.8,2.1v11.9
			c0,1.9,0,2.1-0.9,2.2l-0.6,0.1l0,0c-0.1,0.1-0.2,0.3-0.1,0.4c0,0.1,0.1,0.3,0.2,0.4l0,0l0,0c0.8-0.1,1.6-0.1,2.5-0.1
			c0.9,0,1.6,0,2.6,0.1l0,0l0,0c0.1-0.1,0.2-0.2,0.2-0.4c0-0.1,0-0.3-0.1-0.4L395.5,133.7z"/>
		<path class="st2" d="M426.1,123.5c-1,0-2,0.8-2.9,1.6c0,0,0-0.1,0-0.1v-1.5c0-0.1-0.1-0.2-0.3-0.3l0,0l0,0c-0.6,0.4-2,1.1-2.7,1.3
			c-0.1,0-0.1,0.1-0.1,0.2c0,0.1,0,0.3,0.1,0.4l0.2,0.2c0.7,0.5,0.7,0.6,0.7,1.6v4.6c0,1.9,0,2.1-0.9,2.2l-0.5,0.1l0,0
			c-0.1,0-0.1,0.1-0.1,0.1c0-0.1-0.1-0.1-0.1-0.1l0,0l-0.7-0.1c-1.1-0.1-1.4-0.5-2.2-2.8l-3.8-11c-0.4-1-0.7-2.1-1-3.1
			c-0.1-0.2-0.2-0.3-0.5-0.3h0l0,0c-0.3,0.4-0.7,0.8-1.3,1l-0.1,0l0,0.1c0.1,0.4-0.1,0.9-0.4,1.8l-2.7,7.1c-0.8,2-1.4,3.5-1.8,4.6
			c-0.2,0.5-0.4,0.9-0.5,1.3c-0.3,0.8-0.8,1.2-1.5,1.3l-0.9,0.1l0,0c-0.1,0.1-0.1,0.2-0.1,0.4c0,0.1,0.1,0.3,0.2,0.4l0,0l0,0
			c0.2,0,0.4,0,0.6,0c0.6,0,1.3-0.1,2-0.1c0.3,0,0.6,0,0.9,0c0.8,0,1.3,0,1.9,0.1l0,0l0,0c0.1-0.1,0.2-0.2,0.2-0.3
			c0-0.2,0-0.3-0.2-0.4l0,0l-0.9-0.1c-0.7-0.1-0.7-0.2-0.7-0.5c0-0.3,0.2-1,0.6-2.2l0.9-2.8c0.2-0.5,0.3-0.6,0.9-0.6h4
			c0.8,0,0.8,0.1,1,0.6l1.2,3.6c0.2,0.5,0.3,1.1,0.3,1.4c0,0.2-0.3,0.4-0.9,0.4l-0.8,0.1l0,0c-0.1,0.1-0.2,0.2-0.1,0.4
			c0,0.2,0.1,0.3,0.2,0.4l0,0l0,0c0.2,0,0.3,0,0.5,0c0.7,0,1.5-0.1,2.5-0.1c1.1,0,2,0,3.2,0.1l0,0l0,0c0.1,0,0.1-0.1,0.1-0.2
			c0,0.1,0.1,0.2,0.2,0.2l0,0l0,0c0.7-0.1,1.5-0.1,2.4-0.1c0.9,0,1.7,0,2.9,0.1l0,0l0,0c0.1-0.1,0.2-0.2,0.2-0.4
			c0-0.1,0-0.3-0.1-0.4l0,0l-1-0.1c-0.9-0.1-1-0.3-1-2.2v-3.6c0-1,0.1-1.7,0.3-2c0.2-0.2,0.5-0.5,0.9-0.5c0.3,0,0.7,0.1,1.1,0.4l0,0
			c0.2,0.1,0.3,0.2,0.6,0.2c0.5,0,1.2-0.4,1.2-1.3C427.4,124,426.8,123.5,426.1,123.5z M412.4,126.4c-0.1,0.1-0.3,0.1-0.6,0.1h-3.2
			c-0.3,0-0.5,0-0.6-0.1c0-0.1,0-0.2,0.1-0.5l1.7-4.6c0.3-0.7,0.5-1.3,0.6-1.5c0.2,0.3,0.4,1,0.6,1.6l1.4,4.3
			C412.5,126.1,412.5,126.3,412.4,126.4z"/>
		<path class="st2" d="M431.9,125.2h3l0,0c0.1-0.1,0.2-0.3,0.2-0.6c0-0.3-0.1-0.5-0.2-0.7l0,0h-3c-0.4,0-0.4,0-0.4-0.4v-1.2l0,0
			c-0.1-0.2-0.3-0.2-0.4-0.2c-0.1,0-0.2,0-0.2,0l0,0l0,0c-0.3,0.5-0.8,1.2-1.1,1.5c-0.2,0.2-0.9,0.6-1.7,0.8l0,0l0,0
			c-0.1,0.1-0.1,0.2-0.1,0.4c0,0.1,0.1,0.2,0.2,0.3l0,0h0.8c0.5,0,0.5,0,0.5,0.7v6.1c0,1.4,0.3,2.9,2.8,2.9c1.6,0,2.6-0.9,2.8-1.2
			l0,0c0-0.1,0-0.3-0.1-0.4c-0.1-0.1-0.2-0.1-0.3-0.1c-0.1,0-0.1,0-0.3,0.1c-0.1,0.1-0.3,0.2-0.4,0.2c-0.2,0.1-0.5,0.1-0.7,0.1
			c-1.7,0-1.9-1.4-1.9-2.9v-4.9C431.5,125.2,431.5,125.2,431.9,125.2z"/>
		<path class="st2" d="M439.9,128.1l-0.1-0.1c-0.9-0.5-1.9-1.1-1.9-2.1c0-0.9,0.7-1.5,1.6-1.5c1,0,1.8,0.7,2.3,1.9l0,0
			c0.1,0.1,0.2,0.1,0.3,0.1c0.2,0,0.4-0.1,0.4-0.2l0,0v0c0-0.7-0.2-1.5-0.4-2.2l0,0c-0.3-0.2-1.3-0.5-2.4-0.5
			c-2.2,0-3.7,1.2-3.7,3.1c0,1.6,1.3,2.5,2.7,3.3c1.1,0.6,2,1.2,2,2.4c0,1.2-0.9,1.6-1.7,1.6c-1.6,0-2.4-1.5-2.7-2.7l0,0
			c-0.1-0.1-0.2-0.1-0.3-0.1c-0.2,0-0.3,0.1-0.4,0.2l0,0l0,0c-0.1,0.9,0.1,2.2,0.3,2.7l0,0c0.7,0.5,1.6,0.8,2.9,0.8
			c1.9,0,3.9-1,3.9-3.1C442.7,129.8,441.3,128.9,439.9,128.1z"/>
		<path class="st2" d="M219,149.3c-1.5-0.6-3.2-0.8-5.8-0.8c-2.1,0-4.2,0.1-6.6,0.2l0,0c-0.1,0.1-0.2,0.2-0.2,0.3
			c0,0.2,0.1,0.4,0.2,0.4l0.6,0.1c1,0.1,1.2,0.6,1.2,2.5v10c0,2.8,0,3-1.5,3.2l-0.6,0.1l0,0l0,0c-0.1,0.1-0.1,0.3-0.1,0.5
			c0,0.2,0.1,0.3,0.2,0.3l0,0l0,0c1.3-0.1,2.3-0.1,3.3-0.1c0.4,0,0.9,0,1.5,0.1c0.8,0.1,1.8,0.1,2.8,0.1c1.6,0,4-0.2,6-1.3
			c3-1.6,4.7-4.5,4.7-7.9C224.5,153.4,222.5,150.6,219,149.3z M221.7,157.2c0,5.3-2.6,8.2-7.4,8.2c-1.7,0-2.7-0.3-3.2-1.1
			c-0.4-0.6-0.5-1.4-0.5-2.8v-9.8c0-0.9,0-1.8,0.2-2c0.2-0.1,0.9-0.4,2.6-0.4C221.1,149.5,221.7,155.4,221.7,157.2z"/>
		<path class="st2" d="M230.4,165.4c-0.9-0.1-0.9-0.3-0.9-2.2v-4.8c0-1.3,0.1-2.7,0.1-3.3l0,0l0,0c0-0.1-0.2-0.2-0.3-0.2h0l0,0
			c-0.6,0.4-2.1,1.1-2.7,1.3c-0.1,0-0.1,0.1-0.1,0.2c0,0.1,0,0.3,0.1,0.4l0.2,0.2c0.7,0.5,0.7,0.6,0.7,1.6v4.6c0,1.9,0,2.1-0.9,2.2
			l-0.6,0.1l0,0l0,0c-0.1,0.1-0.2,0.3-0.1,0.4c0,0.1,0.1,0.3,0.2,0.4l0,0l0,0c0.8-0.1,1.5-0.1,2.5-0.1c0.9,0,1.7,0,2.5,0.1l0,0l0,0
			c0.1-0.1,0.2-0.2,0.2-0.4c0-0.1,0-0.3-0.1-0.4L230.4,165.4z"/>
		<path class="st2" d="M228.3,152.4c0.7,0,1.5-0.4,1.5-1.4c0-0.8-0.6-1.4-1.4-1.4c-0.9,0-1.5,0.6-1.5,1.5
			C226.8,151.8,227.5,152.4,228.3,152.4z"/>
		<path class="st2" d="M243.1,156.2l-2.2,0c-0.6,0-0.7,0-1.6-0.4c-0.4-0.2-1.4-0.5-2.6-0.5c-2.5,0-4.4,1.8-4.4,4.1
			c0,1.9,1.4,2.9,2,3.2c0,0.1-0.1,0.3-0.2,0.4c-0.5,0.5-1,0.9-1.4,1.2c-0.3,0.2-0.4,0.3-0.4,0.5c0,0.9,0.9,1.9,2,2.2
			c0,0,0.1,0.1,0.1,0.1c0,0.1-0.2,0.3-0.3,0.4c-0.2,0.2-0.5,0.5-0.8,0.8c-0.4,0.4-0.8,0.7-1,1c-0.2,0.2-0.3,0.6-0.3,1
			c0,1.2,0.9,3.1,4.5,3.1c3.7,0,6.6-2.3,6.6-5.1c0-3-2.8-3-3.8-3c-0.6,0-1.2,0-1.8,0c-0.5,0-0.9,0-1.4,0c-1.1,0-1.8-0.4-1.8-1
			c0-0.7,0.8-1.2,1.1-1.4c0.1,0,0.1,0,0.2,0c0.3,0,0.6,0.1,0.9,0.1c3.3,0,4.5-2.3,4.5-4.3c0-0.4,0-0.9,0-1.3h1.8
			c0.2,0,0.3-0.2,0.4-0.5C243.3,156.6,243.3,156.3,243.1,156.2z M237.5,172c-2.6,0-3.5-1.3-3.5-2.5c0-1,0.7-1.8,1.2-2.2
			c0.3-0.2,1.1-0.3,2.2-0.3h0.9c2,0,2.9,0.7,2.9,2.2C241.4,170.8,239.7,172,237.5,172z M237,162.1c-1.1,0-2.3-1.1-2.3-3
			c0-1.7,0.9-2.9,2.2-2.9c1.7,0,2.3,1.7,2.3,3.2C239.1,161.1,238.3,162.1,237,162.1z"/>
		<path class="st2" d="M244.6,151c0,0.8,0.6,1.4,1.4,1.4c0.7,0,1.5-0.4,1.5-1.4c0-0.8-0.6-1.4-1.4-1.4
			C245.3,149.5,244.6,150.2,244.6,151z"/>
		<path class="st2" d="M248.2,165.4c-0.9-0.1-0.9-0.3-0.9-2.2v-4.8c0-1.3,0.1-2.7,0.1-3.3v0l0,0c0-0.1-0.2-0.2-0.3-0.2h0l0,0
			c-0.6,0.4-2.1,1.1-2.7,1.3c-0.1,0-0.1,0.1-0.1,0.2c0,0.1,0,0.3,0.1,0.4l0.2,0.2c0.7,0.5,0.7,0.6,0.7,1.6v4.6c0,1.9,0,2.1-0.9,2.2
			l-0.6,0.1l0,0l0,0c-0.1,0.1-0.2,0.3-0.1,0.4c0,0.1,0.1,0.3,0.2,0.4l0,0l0,0c0.8-0.1,1.5-0.1,2.5-0.1c0.9,0,1.7,0,2.5,0.1l0,0l0,0
			c0.1-0.1,0.2-0.2,0.2-0.4c0-0.1,0-0.3-0.1-0.4L248.2,165.4z"/>
		<path class="st2" d="M253.8,156.9h3l0,0c0.1-0.1,0.2-0.3,0.2-0.6c0-0.3-0.1-0.5-0.2-0.7l0,0h-3c-0.4,0-0.4,0-0.4-0.4V154l0,0
			c-0.1-0.2-0.3-0.2-0.4-0.2c-0.1,0-0.2,0-0.2,0l0,0l0,0c-0.3,0.5-0.8,1.2-1.1,1.5c-0.2,0.2-0.9,0.6-1.7,0.8l0,0l0,0
			c-0.1,0.1-0.1,0.2-0.1,0.4c0,0.1,0.1,0.2,0.2,0.3l0,0h0.8c0.5,0,0.5,0,0.5,0.7v6.1c0,1.4,0.3,2.9,2.8,2.9c1.6,0,2.6-0.9,2.8-1.2
			l0,0c0-0.1,0-0.3-0.1-0.4c-0.1-0.1-0.2-0.1-0.3-0.1c-0.1,0-0.1,0-0.3,0.1c-0.1,0.1-0.3,0.2-0.4,0.2c-0.2,0.1-0.5,0.1-0.7,0.1
			c-1.7,0-1.9-1.4-1.9-2.9v-4.9C253.4,156.9,253.4,156.9,253.8,156.9z"/>
		<path class="st2" d="M267.5,164.9c-0.1,0-0.2,0.1-0.3,0.1c0,0-0.1,0-0.1,0.1c-0.1,0.1-0.3,0.2-0.6,0.2c-0.3,0-0.5-0.1-0.7-0.3
			c-0.3-0.3-0.5-1-0.4-1.9l0.2-4.6c0-1.1-0.2-1.9-0.7-2.4c-0.5-0.5-1.2-0.8-2.1-0.8c-1.9,0-5,1.9-5,3.3c0,0.3,0.2,0.4,0.4,0.4
			c0.4,0,1.1-0.2,1.5-0.5c0.2-0.2,0.3-0.6,0.3-0.9c0.1-0.8,1-1.1,1.6-1.1c0.6,0,1,0.2,1.3,0.5c0.5,0.5,0.6,1.3,0.5,1.7l0,1.2
			c0,0.4-0.1,0.6-0.4,0.7l-3.1,1.1c-1.7,0.6-2.2,1.2-2.2,2.3c0,0.7,0.3,1.4,0.8,1.9c0.5,0.4,1.1,0.6,1.9,0.6c0.7,0,1.3-0.3,1.8-0.6
			l0.1-0.1c0.2-0.1,0.3-0.2,0.4-0.3c0.3-0.2,0.5-0.3,0.6-0.3c0.1,0,0.3,0.3,0.4,0.3c0.4,0.5,1.1,0.8,1.8,0.8c1.3,0,2.3-1,2.3-1.2
			C267.7,165.1,267.6,164.9,267.5,164.9z M263.3,161.8l-0.1,1.6l0,0.1c0,0.5,0,0.8-0.3,1.1c-0.3,0.3-1.1,0.6-1.6,0.6
			c-1.3,0-1.6-1.1-1.6-1.5c0-1,0.7-1.3,2.3-1.9c0.5-0.2,0.9-0.3,1.1-0.3C263.2,161.5,263.3,161.5,263.3,161.8z"/>
		<path class="st2" d="M272.3,165.4c-0.9-0.1-0.9-0.3-0.9-2.2v-12.5c0-1,0-2,0.1-2.8l0-0.5v0l0,0c-0.1-0.1-0.2-0.2-0.3-0.2l0,0
			c-0.9,0.5-2.2,0.9-2.8,1.1l0,0c-0.1,0.1-0.1,0.2-0.1,0.3c0,0.2,0,0.3,0.1,0.3l0.3,0.2c0.8,0.5,0.8,0.6,0.8,2.1v11.9
			c0,1.9,0,2.1-0.9,2.2l-0.6,0.1l0,0c-0.1,0.1-0.2,0.3-0.1,0.4c0,0.1,0.1,0.3,0.2,0.4l0,0l0,0c0.8-0.1,1.6-0.1,2.5-0.1
			c0.9,0,1.6,0,2.6,0.1l0,0l0,0c0.1-0.1,0.2-0.2,0.2-0.4c0-0.1,0-0.3-0.1-0.4L272.3,165.4z"/>
		<path class="st2" d="M287.7,156.5l-2.1-1.3c-0.8-0.5-2.2-1.6-2.2-3.2c0-0.9,0.3-2.9,3.1-2.9c2.4,0,3.2,1.6,3.5,2.9l0,0
			c0.1,0.1,0.2,0.1,0.3,0.1c0.2,0,0.4-0.1,0.5-0.2l0,0v0c0-1.2-0.3-2.6-0.5-3.2l0,0h0c-0.2,0-0.6,0-0.9-0.2
			c-0.6-0.2-1.6-0.3-2.5-0.3c-3.3,0-5.5,1.9-5.5,4.6c0,2.2,1.6,3.7,2.9,4.6l2.5,1.6c1.9,1.2,2.1,2.5,2.1,3.6c0,1.5-1,3-3.2,3
			c-2.8,0-4-2.1-4.5-3.9l0,0c-0.1-0.1-0.2-0.1-0.3-0.1c-0.2,0-0.4,0.1-0.5,0.2l0,0v0c0.1,1.2,0.4,3.1,0.7,3.7l0,0l0,0
			c0.6,0.4,2,1,4.2,1c3.4,0,5.7-2,5.7-5C291,159.6,289.9,157.9,287.7,156.5z"/>
		<path class="st2" d="M301.9,163.3L301.9,163.3L301.9,163.3c-0.6,0.8-1.3,1.6-2.9,1.6c-2.6,0-4.2-2.3-4.2-4.5
			c0-2.9,1.9-4.2,3.6-4.2c1.1,0,2,0.7,2.6,1.4c0.1,0.1,0.3,0.2,0.4,0.2c0.4,0,0.6-0.6,0.6-1c0-0.4-0.2-0.9-0.4-1.1l0,0
			c-0.7-0.3-1.7-0.5-2.4-0.5c-4.4,0-6.5,3.1-6.5,6c0,1.6,0.5,3,1.6,4c0.9,0.9,2.2,1.4,3.7,1.4c1.5,0,3.5-0.7,4.5-2.7l0,0l0,0
			C302.5,163.5,302.2,163.3,301.9,163.3z"/>
		<path class="st2" d="M315.2,165.4l-0.7-0.1c-0.9-0.1-0.9-0.3-0.9-2.2v-4.4c0-1.3-0.5-3.5-3.5-3.5c-1.5,0-2.9,0.8-3.6,1.3
			c0-0.1-0.1-0.2-0.1-0.4v-5.5c0-1,0-2,0.1-2.8l0-0.5l0,0l0,0c-0.1-0.1-0.2-0.2-0.3-0.2l0,0c-0.9,0.5-2.2,0.9-2.8,1.1l0,0
			c-0.1,0.1-0.1,0.2-0.1,0.3c0,0.2,0,0.3,0.1,0.3l0.3,0.2c0.8,0.5,0.8,0.6,0.8,2.1v11.9c0,1.9,0,2.1-0.9,2.2l-0.7,0.1l0,0
			c-0.1,0.1-0.2,0.3-0.1,0.4c0,0.1,0.1,0.3,0.2,0.4l0,0l0,0c0.9-0.1,1.7-0.1,2.6-0.1c0.9,0,1.7,0,2.5,0.1l0,0l0,0
			c0.1-0.1,0.2-0.3,0.2-0.4c0-0.2,0-0.3-0.1-0.4l-0.6-0.1c-0.9-0.1-0.9-0.3-0.9-2.2v-4.4c0-0.9,0.1-1,0.5-1.4c0.4-0.3,1-0.7,2-0.7
			c1.6,0,2.4,1,2.4,2.8v3.8c0,1.9,0,2.1-0.9,2.2l-0.5,0.1l0,0c-0.1,0.1-0.2,0.3-0.1,0.4c0,0.1,0.1,0.3,0.2,0.4l0,0l0,0
			c0.7-0.1,1.5-0.1,2.5-0.1c0.9,0,1.6,0,2.6,0.1l0,0l0,0c0.1-0.1,0.2-0.2,0.2-0.4C315.4,165.7,315.3,165.6,315.2,165.4L315.2,165.4z
			"/>
		<path class="st2" d="M321.8,155.2c-3.2,0-5.7,2.5-5.7,5.8c0,3.2,2.3,5.5,5.5,5.5c3.3,0,5.6-2.4,5.6-5.7
			C327.3,157.6,324.9,155.2,321.8,155.2z M321.9,165.6c-2.3,0-3.3-2.6-3.3-4.9c0-2.7,1.2-4.5,3-4.5c2.6,0,3.3,3.2,3.3,5
			C324.9,163.3,324.1,165.6,321.9,165.6z"/>
		<path class="st2" d="M333,165.4c-0.9-0.1-0.9-0.3-0.9-2.2v-12.5c0-1,0-2,0.1-2.8l0-0.5l0,0l0,0c-0.1-0.1-0.2-0.2-0.3-0.2l0,0
			c-0.9,0.5-2.2,0.9-2.8,1.1l0,0c-0.1,0.1-0.1,0.2-0.1,0.3c0,0.2,0.1,0.3,0.1,0.3l0.3,0.2c0.8,0.5,0.8,0.6,0.8,2.1v11.9
			c0,1.9,0,2.1-0.9,2.2l-0.6,0.1l0,0c-0.1,0.1-0.2,0.3-0.1,0.4c0,0.1,0.1,0.3,0.2,0.4l0,0l0,0c0.8-0.1,1.6-0.1,2.5-0.1
			c0.9,0,1.6,0,2.6,0.1l0,0l0,0c0.1-0.1,0.2-0.2,0.2-0.4c0-0.1,0-0.3-0.1-0.4L333,165.4z"/>
		<path class="st2" d="M344.6,164.9c-0.1,0-0.2,0.1-0.3,0.1c0,0-0.1,0-0.1,0.1c-0.1,0.1-0.3,0.2-0.6,0.2c-0.3,0-0.5-0.1-0.7-0.3
			c-0.3-0.3-0.5-1-0.4-1.9l0.2-4.6c0-1.1-0.2-1.9-0.7-2.4c-0.5-0.5-1.2-0.8-2.1-0.8c-1.9,0-5,1.9-5,3.3c0,0.3,0.2,0.4,0.4,0.4
			c0.4,0,1.2-0.2,1.5-0.5c0.2-0.2,0.3-0.6,0.3-0.9c0.1-0.8,1-1.1,1.6-1.1c0.6,0,1,0.2,1.3,0.5c0.5,0.5,0.5,1.3,0.5,1.7l0,1.2
			c0,0.4-0.1,0.6-0.4,0.7l-3.1,1.1c-1.7,0.6-2.2,1.2-2.2,2.3c0,0.7,0.3,1.4,0.8,1.9c0.5,0.4,1.1,0.6,1.9,0.6c0.7,0,1.3-0.3,1.8-0.6
			l0.1-0.1c0.2-0.1,0.3-0.2,0.4-0.3c0.3-0.2,0.4-0.3,0.6-0.3c0.1,0,0.3,0.3,0.4,0.3c0.4,0.5,1.1,0.8,1.8,0.8c1.3,0,2.3-1,2.3-1.2
			C344.8,165.1,344.7,164.9,344.6,164.9z M340.4,161.8l-0.1,1.6l0,0.1c0,0.5,0,0.8-0.3,1.1c-0.3,0.3-1.1,0.6-1.6,0.6
			c-1.3,0-1.6-1.1-1.6-1.5c0-1,0.7-1.3,2.3-1.9c0.5-0.2,0.9-0.3,1.1-0.3C340.3,161.5,340.4,161.5,340.4,161.8z"/>
		<path class="st2" d="M351.7,155.2c-1,0-2,0.8-2.9,1.6c0,0,0-0.1,0-0.1v-1.5c0-0.1-0.1-0.2-0.3-0.3l0,0l0,0c-0.6,0.4-2,1.1-2.7,1.3
			c-0.1,0-0.1,0.1-0.1,0.2c0,0.1,0,0.3,0.1,0.4l0.2,0.2c0.7,0.5,0.7,0.6,0.7,1.6v4.6c0,1.9,0,2.1-0.9,2.2l-0.5,0.1l0,0
			c-0.1,0.1-0.2,0.3-0.1,0.4c0,0.1,0.1,0.3,0.2,0.4l0,0l0,0c0.7-0.1,1.5-0.1,2.4-0.1c0.9,0,1.7,0,2.9,0.1l0,0l0,0
			c0.1-0.1,0.2-0.2,0.2-0.4c0-0.1,0-0.3-0.1-0.4l0,0l-1-0.1c-0.9-0.1-1-0.3-1-2.2v-3.6c0-1,0.1-1.7,0.3-2c0.2-0.2,0.5-0.5,0.9-0.5
			c0.3,0,0.7,0.1,1.1,0.4l0,0c0.2,0.1,0.3,0.2,0.6,0.2c0.5,0,1.2-0.4,1.2-1.3C352.9,155.7,352.4,155.2,351.7,155.2z"/>
		<path class="st2" d="M357.6,159.8l-0.1-0.1c-0.9-0.5-1.9-1.1-1.9-2.1c0-0.9,0.7-1.5,1.6-1.5c1,0,1.8,0.7,2.3,1.9l0,0
			c0.1,0.1,0.2,0.1,0.3,0.1c0.2,0,0.4-0.1,0.4-0.2l0,0v0c0-0.7-0.2-1.5-0.4-2.2l0,0c-0.3-0.2-1.3-0.5-2.4-0.5
			c-2.2,0-3.7,1.2-3.7,3.1c0,1.6,1.3,2.5,2.7,3.3c1.1,0.6,2,1.2,2,2.4c0,1.2-0.9,1.6-1.7,1.6c-1.6,0-2.4-1.5-2.7-2.7l0,0
			c-0.1-0.1-0.2-0.1-0.3-0.1c-0.2,0-0.3,0.1-0.4,0.2l0,0l0,0c-0.1,0.9,0.1,2.2,0.3,2.7l0,0c0.7,0.5,1.6,0.8,2.9,0.8
			c1.9,0,3.9-1,3.9-3.1C360.3,161.5,359,160.6,357.6,159.8z"/>
		<path class="st2" d="M373.7,165.4l-0.7-0.1c-0.9-0.1-0.9-0.3-0.9-2.2v-4.4c0-1.3-0.5-3.5-3.5-3.5c-1.5,0-2.9,0.8-3.6,1.3
			c0-0.1-0.1-0.2-0.1-0.4v-5.5c0-1,0-2,0.1-2.8l0-0.5v0l0,0c-0.1-0.1-0.2-0.2-0.3-0.2l0,0c-0.9,0.5-2.2,0.9-2.8,1.1l0,0
			c-0.1,0.1-0.1,0.2-0.1,0.3c0,0.2,0.1,0.3,0.1,0.3l0.3,0.2c0.8,0.5,0.8,0.6,0.8,2.1v11.9c0,1.9,0,2.1-0.9,2.2l-0.7,0.1l0,0
			c-0.1,0.1-0.2,0.3-0.1,0.4c0,0.1,0.1,0.3,0.2,0.4l0,0l0,0c0.9-0.1,1.7-0.1,2.6-0.1c0.9,0,1.7,0,2.5,0.1l0,0l0,0
			c0.1-0.1,0.2-0.3,0.2-0.4c0-0.2,0-0.3-0.1-0.4l-0.6-0.1c-0.9-0.1-0.9-0.3-0.9-2.2v-4.4c0-0.9,0.1-1,0.5-1.4c0.4-0.3,1-0.7,2-0.7
			c1.6,0,2.4,1,2.4,2.8v3.8c0,1.9,0,2.1-0.9,2.2l-0.5,0.1l0,0c-0.1,0.1-0.2,0.3-0.1,0.4c0,0.1,0.1,0.3,0.2,0.4l0,0l0,0
			c0.7-0.1,1.5-0.1,2.5-0.1c0.9,0,1.6,0,2.6,0.1l0,0l0,0c0.1-0.1,0.2-0.2,0.2-0.4C373.9,165.7,373.9,165.6,373.7,165.4L373.7,165.4z
			"/>
		<path class="st2" d="M379.4,165.4c-0.9-0.1-0.9-0.3-0.9-2.2v-4.8c0-1.3,0.1-2.7,0.1-3.3v0l0,0c0-0.1-0.2-0.2-0.3-0.2h0l0,0
			c-0.6,0.4-2.1,1.1-2.7,1.3c-0.1,0-0.1,0.1-0.1,0.2c0,0.1,0,0.3,0.1,0.4l0.2,0.2c0.7,0.5,0.7,0.6,0.7,1.6v4.6c0,1.9,0,2.1-0.9,2.2
			l-0.6,0.1l0,0l0,0c-0.1,0.1-0.2,0.3-0.1,0.4c0,0.1,0.1,0.3,0.2,0.4l0,0l0,0c0.8-0.1,1.5-0.1,2.5-0.1c0.9,0,1.7,0,2.5,0.1l0,0l0,0
			c0.1-0.1,0.2-0.2,0.2-0.4c0-0.1,0-0.3-0.1-0.4L379.4,165.4z"/>
		<path class="st2" d="M378.7,151c0-0.8-0.6-1.4-1.4-1.4c-0.9,0-1.5,0.6-1.5,1.5c0,0.8,0.6,1.4,1.4,1.4
			C377.9,152.4,378.7,152,378.7,151z"/>
		<path class="st2" d="M388.3,155.2c-1.4,0-2.9,0.8-3.5,1.1c-0.1,0.1-0.2,0.1-0.2,0.1c-0.1,0-0.2,0-0.2-0.3c0-0.3,0-0.6,0.1-1l0-0.3
			l0,0c-0.1-0.2-0.2-0.2-0.4-0.2h0l0,0c-0.7,0.5-2,1.2-2.6,1.4c-0.1,0-0.1,0.1-0.1,0.2c0,0.1,0,0.3,0.1,0.4l0.2,0.2
			c0.7,0.5,0.7,0.6,0.7,1.6v11.4c0,1.9,0,2.1-0.9,2.2l-0.6,0.1l0,0l0,0c-0.1,0.1-0.2,0.3-0.1,0.4c0,0.1,0.1,0.3,0.2,0.4l0,0l0,0
			c0.8-0.1,1.5-0.1,2.5-0.1c0.9,0,1.6,0,3,0.1l0,0l0,0c0.1-0.1,0.2-0.2,0.2-0.4c0-0.1,0-0.3-0.1-0.4l-1.1-0.1
			c-0.9-0.1-0.9-0.3-0.9-2.2v-2.8c0-0.5,0.1-0.6,0.3-0.7c0.3,0.1,1,0.1,1.5,0.1c3.8,0,6.5-2.7,6.5-6.4
			C392.8,157.3,390.9,155.2,388.3,155.2z M387.1,165.5c-0.5,0-1.3-0.2-1.9-0.6c-0.5-0.4-0.8-0.7-0.8-1.5v-4.5c0-0.9,0.1-1.2,0.3-1.5
			c0.3-0.3,1.1-0.7,2.2-0.7c2.4,0,3.5,2.2,3.5,4.2C390.5,163.7,389.2,165.5,387.1,165.5z"/>
	</g>
</g>
<g>
	<path class="st2" d="M119,62.7c0,0-0.9-0.3-2.6-0.5c-1.7-0.2-4.1-0.4-7.1-0.1c-0.7,0.1-1.5,0.2-2.3,0.3c-0.4,0.1-0.8,0.2-1.2,0.3
		c-0.4,0.1-0.8,0.2-1.2,0.3c-1.6,0.5-3.3,1-5,1.7c-1.7,0.6-3.4,1.3-5.2,1.8c-0.9,0.3-1.8,0.5-2.7,0.6c-0.9,0.1-1.8,0.2-2.8,0.2
		c-1.8,0-3.6-0.2-5.4-0.8c-1.8-0.5-3.5-1.2-5.2-1.8c-1.7-0.7-3.4-1.2-5-1.7c-1.6-0.5-3.2-0.8-4.7-0.9c-2.9-0.3-5.4-0.2-7.1,0.1
		c-1.7,0.2-2.6,0.5-2.6,0.5s1-0.1,2.7-0.1c1.7,0,4.1,0.1,6.9,0.7c2.8,0.5,5.9,1.7,9.2,3.1c1.7,0.7,3.4,1.5,5.3,2
		c1.9,0.6,3.9,0.9,6,0.9c0.9,0,2-0.1,3-0.2c1-0.2,2-0.4,2.9-0.7c1.9-0.6,3.6-1.4,5.3-2c1.7-0.7,3.3-1.3,4.8-1.9
		c0.4-0.1,0.7-0.3,1.1-0.4c0.4-0.1,0.8-0.2,1.1-0.3c0.7-0.2,1.4-0.4,2.1-0.5c2.8-0.5,5.2-0.7,6.9-0.7C118,62.6,119,62.7,119,62.7z"
		/>
	<path class="st2" d="M71.8,100.1c2.3,0.1,5.1,0.2,8,0.3c1.5,0,3,0.1,4.5,0.1c1.5,0,3.1,0,4.7,0c1.6,0,3.1,0,4.7,0
		c1.5,0,3.1-0.1,4.5-0.1c2.9-0.1,5.7-0.2,8-0.3c4.7-0.2,7.8-0.6,7.8-0.6s-3.1-0.3-7.8-0.6c-2.3-0.1-5.1-0.2-8-0.3
		c-1.5,0-3-0.1-4.5-0.1c-1.5,0-3.1,0-4.7,0c-1.6,0-3.1,0-4.7,0c-1.5,0-3.1,0.1-4.5,0.1c-2.9,0.1-5.7,0.2-8,0.3
		c-4.7,0.2-7.8,0.6-7.8,0.6S67.1,99.9,71.8,100.1z"/>
	<path class="st2" d="M91.9,86.7c-0.3,1-0.8,2-1.3,3c-0.3,0.4-0.5,0.9-0.8,1.2c-0.2,0.2-0.3,0.3-0.4,0.4c-0.1,0.1-0.1,0-0.1,0.1
		c0,0-0.1,0-0.2,0l-0.1,0l0,0c-0.2,0-0.5-0.1-0.8-0.5c-0.3-0.3-0.6-0.8-0.8-1.2c-0.5-0.9-0.9-1.9-1.3-3c-0.7-2-1.2-4-1.7-5.7
		c-0.8-3.4-1.4-5.7-1.4-5.7s-0.1,2.4,0.3,5.9c0.2,1.8,0.5,3.8,1.1,6c0.3,1.1,0.7,2.2,1.2,3.3c0.3,0.6,0.6,1.1,1.1,1.7
		c0.5,0.5,1.2,1.1,2.2,1.1l0.2,0l0.1,0l0.1,0c0.1,0,0.1,0,0.3,0c0.2-0.1,0.6-0.2,0.7-0.3c0.4-0.2,0.7-0.5,0.9-0.7
		c0.5-0.5,0.8-1.1,1.1-1.7c0.6-1.1,0.9-2.3,1.2-3.3c0.6-2.2,0.9-4.2,1.1-6c0.4-3.5,0.3-5.9,0.3-5.9s-0.6,2.3-1.4,5.7
		C93.2,82.7,92.6,84.7,91.9,86.7z"/>
	<path class="st2" d="M106.9,86.7c-0.3,1-0.8,2-1.3,3c-0.3,0.4-0.5,0.9-0.8,1.2c-0.2,0.2-0.3,0.3-0.4,0.4c-0.1,0.1-0.1,0-0.1,0.1
		c0,0-0.1,0-0.2,0l-0.1,0l0,0c-0.2,0-0.5-0.1-0.8-0.5c-0.3-0.3-0.6-0.8-0.8-1.2c-0.5-0.9-0.9-1.9-1.3-3c-0.7-2-1.2-4-1.7-5.7
		c-0.8-3.4-1.4-5.7-1.4-5.7s-0.1,2.4,0.3,5.9c0.2,1.8,0.5,3.8,1.1,6c0.3,1.1,0.7,2.2,1.2,3.3c0.3,0.6,0.6,1.1,1.1,1.7
		c0.5,0.5,1.2,1.1,2.2,1.1l0.2,0l0.1,0l0.1,0c0.1,0,0.1,0,0.3,0c0.2-0.1,0.6-0.2,0.7-0.3c0.4-0.2,0.7-0.5,0.9-0.7
		c0.5-0.5,0.8-1.1,1.1-1.7c0.6-1.1,0.9-2.3,1.2-3.3c0.6-2.2,0.9-4.2,1.1-6c0.4-3.5,0.3-5.9,0.3-5.9s-0.6,2.3-1.4,5.7
		C108.2,82.7,107.6,84.7,106.9,86.7z"/>
	<path class="st2" d="M69.4,87.3c0.3,1.1,0.7,2.2,1.2,3.3c0.3,0.6,0.6,1.1,1.1,1.7c0.5,0.5,1.2,1.1,2.2,1.1l0.2,0l0.1,0l0.1,0
		c0.1,0,0.1,0,0.3,0c0.2-0.1,0.6-0.2,0.7-0.3c0.4-0.2,0.7-0.5,0.9-0.7c0.5-0.5,0.8-1.1,1.1-1.7c0.6-1.1,0.9-2.3,1.2-3.3
		c0.6-2.2,0.9-4.2,1.1-6c0.4-3.5,0.3-5.9,0.3-5.9s-0.6,2.3-1.4,5.7c-0.4,1.7-1,3.7-1.7,5.7c-0.3,1-0.8,2-1.3,3
		c-0.3,0.4-0.5,0.9-0.8,1.2c-0.2,0.2-0.3,0.3-0.4,0.4c-0.1,0.1-0.1,0-0.1,0.1c0,0-0.1,0-0.2,0l-0.1,0l0,0c-0.2,0-0.5-0.1-0.8-0.5
		c-0.3-0.3-0.6-0.8-0.8-1.2c-0.5-0.9-0.9-1.9-1.3-3c-0.7-2-1.2-4-1.7-5.7c-0.8-3.4-1.4-5.7-1.4-5.7s-0.1,2.4,0.3,5.9
		C68.5,83,68.8,85.1,69.4,87.3z"/>
	<path class="st2" d="M137.4,106.2c3.5-0.2,7.1-0.9,10.4-2.5c4.1-2,7.6-5.1,10.2-8.9c2.6-3.8,4.2-8.2,5-12.7
		c0.4-2.3,0.6-4.6,0.5-6.9c-0.1-2.4-0.5-4.7-1.2-7c-2.8-9-9.6-16.6-18.2-20.8c-2.8-1.4-5.8-2.3-8.9-2.9l4.2-3.2h5.6v-12H32v12h5.6
		l4.4,3.3c-2.9,0.6-5.7,1.5-8.3,2.7C25,51.2,18.2,59,15.6,68.1c-0.3,1.1-0.6,2.3-0.8,3.5c-0.1,0.6-0.2,1.2-0.2,1.8l-0.1,0.9
		c0,0.3,0,0.6,0,0.8c0,2.3,0.1,4.6,0.5,6.9c0.8,4.5,2.4,8.9,5,12.7c2.6,3.8,6.1,7,10.2,8.9c3.3,1.6,6.9,2.4,10.4,2.5v61.4h-9.8
		c-0.7-3.1-3.5-5.5-6.8-5.5c-3.9,0-7,3.1-7,7c0,3.9,3.1,7,7,7c3.4,0,6.1-2.4,6.8-5.5h12.8v-10.5H51v-47.5c0-1.8,1.5-3.3,3.3-3.3
		c1.8,0,3.3,1.5,3.3,3.3v67.5H45.6v-2.5h-7v7h7v-2.5h13.9v-69.7h0c-0.1-2.8-2.4-5.1-5.3-5.1c-2.9,0-5.2,2.3-5.3,5.1l0,45.7h-5.4
		v-51.9c4.3-0.3,8.4-1.7,11.9-4c3.6-2.4,6.5-5.7,8.4-9.4c1.9-3.7,2.8-7.9,2.6-12c-0.2-4.1-1.7-8.1-4.1-11.2
		c-4.9-6.3-13.4-9.1-20.5-6.8c-3.5,1.2-6.5,3.5-8.4,6.5c-1.9,3-2.7,6.5-2.4,9.8c0.4,3.4,2.1,6.4,4.6,8.4c2.5,2,5.6,3,8.6,2.8
		c3-0.2,5.8-1.7,7.4-4c1.7-2.2,2.3-5,1.9-7.6c-0.5-2.6-2.2-4.7-4.3-5.7c-1-0.5-2.2-0.8-3.3-0.8c-1.1-0.1-2.2,0.2-3.2,0.7
		c-1.9,1-3.2,2.8-3.4,4.7c-0.3,1.9,0.4,3.7,1.6,4.8c1.2,1.1,2.8,1.5,4.2,1.2c1.4-0.3,2.4-1.2,2.8-2.2c0.5-1,0.5-2.1,0.2-2.8
		c-0.3-0.8-0.9-1.3-1.3-1.6c-1-0.6-1.6-0.4-1.6-0.4c0,0,0.6-0.1,1.6,0.5c0.5,0.3,1,0.8,1.3,1.6c0.3,0.8,0.2,1.8-0.2,2.7
		c-0.5,0.9-1.4,1.8-2.7,2c-1.2,0.2-2.7-0.2-3.8-1.2c-1.1-1-1.7-2.7-1.3-4.4c0.3-1.7,1.4-3.3,3.2-4.1c1.7-0.8,3.9-0.7,5.7,0.3
		c1.8,1,3.3,2.9,3.7,5.1c0.3,2.2-0.3,4.7-1.8,6.6c-1.5,1.9-3.9,3.2-6.5,3.3c-2.6,0.1-5.4-0.8-7.5-2.6c-2.1-1.8-3.6-4.5-3.8-7.4
		c-0.2-2.9,0.6-6,2.3-8.5c1.7-2.6,4.3-4.6,7.3-5.5c3-1,6.5-0.7,9.7,0.3c3.2,1.1,6.1,3.2,8.2,5.9c2.1,2.8,3.3,6.2,3.4,9.8
		c0.1,3.6-0.7,7.3-2.5,10.6c-1.7,3.3-4.3,6.2-7.5,8.2c-3.2,2.1-7,3.2-10.8,3.4l-0.7,0l-0.2,0l-0.2,0l-0.4,0c-0.5,0-1,0-1.5-0.1
		c-0.9-0.1-1.9-0.2-2.9-0.4c-1.9-0.4-3.8-1-5.5-1.9c-3.5-1.7-6.6-4.5-8.8-7.8c-2.2-3.4-3.7-7.3-4.3-11.4c-0.3-2-0.5-4.2-0.4-6.2
		c0-0.3,0-0.6,0-0.8l0.1-0.7c0-0.5,0.1-1,0.2-1.5c0.2-1,0.4-2,0.7-3c2.3-8,8.5-14.8,16.2-18.4c3.9-1.8,8.1-2.8,12.4-3l1.6,0l1.7,0
		l3.4,0c2.3,0,4.6,0,6.9,0c9.2,0,18.3,0,27.5,0c9.2,0,18.4,0,27.5,0c2.3,0,4.6,0,6.9,0l3.4,0l1.7,0l1.7,0c4.2,0.2,8.5,1.2,12.3,3
		c7.7,3.7,13.8,10.5,16.4,18.4c0.6,2,1,4,1.1,6c0.1,2.1-0.1,4.2-0.4,6.2c-0.7,4.1-2.1,8-4.3,11.4c-2.2,3.4-5.3,6.1-8.8,7.8
		c-3.5,1.8-7.5,2.5-11.4,2.4c-3.8-0.1-7.6-1.3-10.8-3.4c-3.2-2-5.8-4.9-7.5-8.2c-1.7-3.3-2.5-7-2.5-10.6c0.1-3.5,1.4-7,3.4-9.7
		c2.1-2.8,5-4.8,8.2-5.9c3.2-1.1,6.6-1.3,9.7-0.3c3,0.9,5.7,3,7.3,5.5c1.7,2.6,2.5,5.6,2.2,8.5c-0.2,2.9-1.7,5.6-3.8,7.4
		c-2.1,1.8-4.8,2.7-7.5,2.6c-2.6-0.1-5-1.4-6.5-3.3c-1.5-1.9-2.2-4.4-1.8-6.6c0.3-2.2,1.8-4.1,3.7-5.1c1.8-1,4.1-1.1,5.7-0.3
		c1.7,0.8,2.9,2.4,3.1,4.1c0.4,1.7-0.2,3.3-1.3,4.4c-1.1,1-2.6,1.4-3.8,1.2c-1.3-0.2-2.2-1.1-2.7-2c-0.5-0.9-0.5-1.9-0.2-2.7
		c0.3-0.8,0.8-1.3,1.3-1.6c1-0.6,1.6-0.4,1.6-0.5c0,0-0.6-0.1-1.6,0.4c-0.5,0.3-1,0.8-1.3,1.6c-0.3,0.8-0.3,1.8,0.2,2.8
		c0.5,1,1.5,1.9,2.8,2.2c1.3,0.3,3-0.1,4.2-1.2c0.6-0.5,1.1-1.3,1.4-2.1c0.3-0.8,0.4-1.8,0.2-2.7c-0.3-1.9-1.5-3.7-3.4-4.7
		c-0.9-0.5-2.1-0.7-3.2-0.7c-1.1,0-2.3,0.3-3.3,0.8c-2.1,1-3.8,3.1-4.3,5.7c-0.4,2.5,0.2,5.3,1.9,7.6c1.7,2.2,4.4,3.8,7.4,4
		c3,0.2,6.1-0.8,8.6-2.8c2.5-2,4.2-5.1,4.6-8.4c0.3-3.3-0.5-6.9-2.4-9.8c-1.9-3-4.9-5.4-8.4-6.5c-7.1-2.3-15.6,0.5-20.5,6.8
		c-2.4,3.1-4,7.1-4.1,11.2c-0.2,4,0.7,8.2,2.6,12c1.9,3.7,4.8,7,8.4,9.4c3.5,2.3,7.6,3.7,11.9,4v76.9H128v-70.7h0
		c-0.1-2.8-2.4-5.1-5.3-5.1c-2.9,0-5.2,2.3-5.3,5.1l0,80.1h-2.3v6.6h6.6v-6.6h-2.3v-79.9c0-1.8,1.5-3.3,3.3-3.3
		c1.8,0,3.3,1.5,3.3,3.3v72.5h8.4v15.5h12.8c0.7,3.1,3.5,5.5,6.8,5.5c3.9,0,7-3.1,7-7c0-3.9-3.1-7-7-7c-3.4,0-6.1,2.4-6.8,5.5h-9.8
		V106.2z M35,32.2h107v6H35V32.2z M41,41.2H136l-3.7,2.8c-0.7-0.1-1.5-0.1-2.2-0.2l-1.8,0l-1.7,0l-3.4,0c-2.3,0-4.6,0-6.9,0
		c-9.2,0-18.3,0-27.5,0c-9.2,0-18.4,0-27.5,0c-2.3,0-4.6,0-6.9,0l-3.4,0l-1.7,0l-1.8,0c-0.9,0-1.9,0.1-2.8,0.2L41,41.2z"/>
	<path class="st2" d="M93.8,112.4L93.8,112.4c-0.1-2.8-2.4-5.1-5.3-5.1c-2.9,0-5.2,2.3-5.3,5.1l0,81.7h-6.6v-81.7h0
		c-0.1-2.8-2.4-5.1-5.3-5.1c-2.9,0-5.2,2.3-5.3,5.1l0,0.1c0,0,0,0,0,0.1h0l0,82H40.6v12h-2.5v7h7v-7h-2.5v-10h25.5l0-84.1
		c0-1.8,1.5-3.2,3.3-3.2c1.8,0,3.3,1.5,3.3,3.3V209h-8.1v-4h-10v4v2v4h10v-4h10.1v-15h8.6v-83.5c0-1.8,1.5-3.3,3.3-3.3
		c1.8,0,3.3,1.5,3.3,3.3v91h-5.5v13h13v-13h-5.5V112.4z"/>
	<path class="st2" d="M120.9,209h-10l0-96.5h0c0,0,0,0,0-0.1l0-0.1h0c-0.1-2.8-2.4-5.1-5.3-5.1c-2.9,0-5.2,2.3-5.3,5.1l0,65.6H98
		v6.6h6.6v-6.6h-2.3v-65.4c0-1.8,1.5-3.3,3.3-3.3c1.8,0,3.2,1.4,3.3,3.2l0,98.5h12v4h10v-4v-2v-4h-10V209z"/>
</g>
</svg>
